<svg xmlns="http://www.w3.org/2000/svg" width="256" height="256" fill="none" viewBox="0 0 256 256" id="wechat">
  <rect width="224" height="224" x="16" y="16" fill="#EEE" rx="70"></rect>
  <path fill="#31CE6F" fill-rule="evenodd" d="M108.039 73.0061C80.7096 72.6043 58 92.1983 58 115.307C58 128.647 64.4304 140.219 76.878 148.715C76.878 148.715 72.3159 163.404 72.3808 163.698C72.4457 163.993 73.4386 164.572 73.7841 164.383C74.1297 164.194 90.2754 154.8 90.2754 154.8C101.846 158.675 108.905 157.721 110.109 157.559C110.193 157.547 110.249 157.54 110.275 157.538C109.04 154.01 108.231 148.517 109.153 143.34C113.976 116.244 142.411 107.815 157.994 109.255C153.691 89.6868 134.999 73.4021 108.039 73.0061ZM89.0434 95.2461C85.4583 95.2461 82.5525 98.0819 82.5525 101.58C82.5525 105.079 85.4583 107.915 89.0434 107.915C92.6286 107.915 95.5351 105.079 95.5351 101.58C95.5351 98.0819 92.6286 95.2461 89.0434 95.2461ZM128.341 95.2461C124.757 95.2461 121.85 98.0819 121.85 101.58C121.85 105.079 124.757 107.915 128.341 107.915C131.926 107.915 134.833 105.079 134.833 101.58C134.833 98.0819 131.927 95.2461 128.341 95.2461Z" clip-rule="evenodd"></path>
  <path fill="#31CE6F" fill-rule="evenodd" d="M198 147.463C198 127.665 178.377 112.501 155.612 112.501C131.508 112.501 112.283 128.008 112.283 147.804C112.283 167.636 130.569 184.055 155.64 184.189C160.686 184.217 168.202 182.951 173.27 180.885C173.27 180.885 185.385 188.052 186.063 188C186.741 187.946 187.089 187.422 187.116 186.973C187.143 186.523 183.256 175.337 183.256 175.337C193.659 167.388 198 158.63 198 147.463ZM139.747 128.928C136.575 128.928 134.004 131.44 134.004 134.542C134.004 137.641 136.575 140.155 139.747 140.155C142.919 140.155 145.49 137.642 145.49 134.542C145.49 131.44 142.919 128.928 139.747 128.928ZM170.457 128.928C167.285 128.928 164.714 131.44 164.714 134.542C164.714 137.641 167.285 140.155 170.457 140.155C173.629 140.155 176.2 137.642 176.2 134.542C176.2 131.44 173.629 128.928 170.457 128.928Z" clip-rule="evenodd"></path>
</svg>
